<?xml version="1.0" encoding="utf-8"?>
<!-- Generator: Adobe Illustrator 16.0.0, SVG Export Plug-In . SVG Version: 6.00 Build 0)  -->
<!DOCTYPE svg PUBLIC "-//W3C//DTD SVG 1.1//EN" "http://www.w3.org/Graphics/SVG/1.1/DTD/svg11.dtd">
<svg version="1.1" id="Calque_1" xmlns="http://www.w3.org/2000/svg" xmlns:xlink="http://www.w3.org/1999/xlink" x="0px" y="0px"
	 width="454.289px" height="179.063px" viewBox="0 0 454.289 179.063" enable-background="new 0 0 454.289 179.063"
	 xml:space="preserve">
<g>
	<g>
		<path fill="#ED0677" d="M445.708,36.818c4.767,0,8.581,3.709,8.581,8.427c0,4.732-3.814,8.472-8.628,8.472
			c-4.835,0-8.677-3.74-8.677-8.472c0-4.718,3.842-8.427,8.677-8.427H445.708z M445.598,38.529c-3.646,0-6.462,3.018-6.462,6.716
			c0,3.758,2.815,6.732,6.571,6.732c3.633,0.045,6.42-2.974,6.42-6.684c0-3.746-2.787-6.764-6.467-6.764H445.598z M444.319,49.622
			h-1.95v-8.427c0.761-0.099,1.844-0.253,3.229-0.253c1.595,0,2.314,0.253,2.875,0.669c0.53,0.354,0.867,0.968,0.867,1.804
			c0,1.011-0.758,1.692-1.74,1.998v0.093c0.818,0.266,1.242,0.923,1.495,2.06c0.245,1.291,0.456,1.739,0.617,2.056h-2.063
			c-0.244-0.317-0.398-1.036-0.672-2.056c-0.123-0.885-0.655-1.292-1.729-1.292h-0.929V49.622z M444.362,44.898h0.92
			c1.088,0,1.969-0.369,1.969-1.253c0-0.762-0.573-1.266-1.814-1.266c-0.508,0-0.864,0.038-1.074,0.099V44.898z"/>
	</g>
	<g>
		<defs>
			<path id="SVGID_1_" d="M90.118,20.37c-20.147,0.002-32.192,13.173-32.192,13.173c22.986-13.123,34.467,0,52.516,9.848
				c49.256,44.318,95.647,23.712,128.039-1.639c37.755-29.546,72.227-4.925,72.227-4.925c-9.848-8.201-37.738-24.621-77.157-4.929
				c-41.014,21.34-63.991,31.199-109.965,0C110.907,23.296,99.618,20.37,90.127,20.37C90.125,20.37,90.122,20.37,90.118,20.37"/>
		</defs>
		<clipPath id="SVGID_2_">
			<use xlink:href="#SVGID_1_"  overflow="visible"/>
		</clipPath>
		
			<linearGradient id="SVGID_3_" gradientUnits="userSpaceOnUse" x1="-67.1992" y1="400.5313" x2="-66.1992" y2="400.5313" gradientTransform="matrix(252.7811 0 0 252.7811 17044.4941 -101196.9375)">
			<stop  offset="0" style="stop-color:#E5E2DF"/>
			<stop  offset="0" style="stop-color:#DED9D6"/>
			<stop  offset="0.0616" style="stop-color:#CECAC9"/>
			<stop  offset="0.1794" style="stop-color:#A8A4A7"/>
			<stop  offset="0.264" style="stop-color:#8B878D"/>
			<stop  offset="0.5225" style="stop-color:#F3F4F4"/>
			<stop  offset="0.5875" style="stop-color:#E0DFE0"/>
			<stop  offset="0.7124" style="stop-color:#B7B4B8"/>
			<stop  offset="0.8764" style="stop-color:#807B80"/>
			<stop  offset="1" style="stop-color:#D1D3D4"/>
			<stop  offset="1" style="stop-color:#A7A9AC"/>
		</linearGradient>
		<rect x="57.926" y="12.206" clip-path="url(#SVGID_2_)" fill="url(#SVGID_3_)" width="252.781" height="75.503"/>
	</g>
	<g>
		<defs>
			<path id="SVGID_4_" d="M99.397,20.72c15.434-8.812,23.164,0,35.284,6.621c33.09,29.786,64.273,15.942,86.063-1.089
				c25.363-19.859,48.503-3.319,48.503-3.319c-6.608-5.512-25.374-16.54-51.848-3.315c-27.561,14.337-43.012,20.973-73.887,0
				c-8.526-5.784-16.114-7.749-22.493-7.749C107.481,11.87,99.397,20.72,99.397,20.72"/>
		</defs>
		<clipPath id="SVGID_5_">
			<use xlink:href="#SVGID_4_"  overflow="visible"/>
		</clipPath>
		
			<linearGradient id="SVGID_6_" gradientUnits="userSpaceOnUse" x1="-67.1987" y1="400.5322" x2="-66.1987" y2="400.5322" gradientTransform="matrix(169.8497 0 0 169.8497 11513.1133 -67998.5156)">
			<stop  offset="0" style="stop-color:#E5E2DF"/>
			<stop  offset="0" style="stop-color:#DED9D6"/>
			<stop  offset="0.0616" style="stop-color:#CECAC9"/>
			<stop  offset="0.1794" style="stop-color:#A8A4A7"/>
			<stop  offset="0.264" style="stop-color:#8B878D"/>
			<stop  offset="0.5225" style="stop-color:#F3F4F4"/>
			<stop  offset="0.5875" style="stop-color:#E0DFE0"/>
			<stop  offset="0.7124" style="stop-color:#B7B4B8"/>
			<stop  offset="0.8764" style="stop-color:#807B80"/>
			<stop  offset="1" style="stop-color:#D1D3D4"/>
			<stop  offset="1" style="stop-color:#A7A9AC"/>
		</linearGradient>
		<rect x="99.397" y="6.393" clip-path="url(#SVGID_5_)" fill="url(#SVGID_6_)" width="169.85" height="50.734"/>
	</g>
	<g>
		<defs>
			<path id="SVGID_7_" d="M123.542,6.325c11.057-6.298,16.581,0,25.263,4.75c23.666,21.308,45.996,11.39,61.557-0.806
				c18.153-14.203,34.719-2.366,34.719-2.366c-4.714-3.944-18.114-11.837-37.086-2.36c-19.728,10.262-30.781,14.997-52.881,0
				C149.007,1.405,143.574,0,139.007,0C129.323,0.001,123.542,6.325,123.542,6.325"/>
		</defs>
		<clipPath id="SVGID_8_">
			<use xlink:href="#SVGID_7_"  overflow="visible"/>
		</clipPath>
		
			<linearGradient id="SVGID_9_" gradientUnits="userSpaceOnUse" x1="-67.1987" y1="400.5322" x2="-66.1987" y2="400.5322" gradientTransform="matrix(121.5395 0 0 121.5395 8290.8535 -48666.2852)">
			<stop  offset="0" style="stop-color:#E5E2DF"/>
			<stop  offset="0" style="stop-color:#DED9D6"/>
			<stop  offset="0.0616" style="stop-color:#CECAC9"/>
			<stop  offset="0.1794" style="stop-color:#A8A4A7"/>
			<stop  offset="0.264" style="stop-color:#8B878D"/>
			<stop  offset="0.5225" style="stop-color:#F3F4F4"/>
			<stop  offset="0.5875" style="stop-color:#E0DFE0"/>
			<stop  offset="0.7124" style="stop-color:#B7B4B8"/>
			<stop  offset="0.8764" style="stop-color:#807B80"/>
			<stop  offset="1" style="stop-color:#D1D3D4"/>
			<stop  offset="1" style="stop-color:#A7A9AC"/>
		</linearGradient>
		<rect x="123.542" y="-3.934" clip-path="url(#SVGID_8_)" fill="url(#SVGID_9_)" width="121.539" height="36.317"/>
	</g>
	<g>
		<path fill="#ED0677" d="M40.881,170.917c2.779,0,5.524-0.43,8.221-1.275c2.692-0.864,5.112-2.14,7.211-3.87
			c2.112-1.689,3.823-3.787,5.083-6.251c1.288-2.476,1.93-5.333,1.93-8.574c0-3.907-0.886-7.374-2.649-10.402
			c-1.753-3.021-4.077-5.818-6.938-8.372c-2.849-2.579-6.136-4.97-9.815-7.199c-3.68-2.228-7.446-4.459-11.25-6.731
			c-3.818-2.252-7.569-4.626-11.258-7.105c-3.709-2.464-6.961-5.213-9.821-8.233c-2.866-3.023-5.179-6.413-6.938-10.183
			c-1.753-3.755-2.639-8.071-2.639-12.959c0-4.878,0.785-9.419,2.386-13.592c1.619-4.183,3.957-7.815,7.075-10.861
			c3.095-3.062,6.89-5.46,11.407-7.188c4.513-1.735,9.717-2.614,15.585-2.614c10.597,0,18.929,2.539,25.065,7.614
			c6.114,5.058,10.532,12.395,13.262,21.964l-9.629,5.049c-1.113-3.908-2.55-7.49-4.288-10.707
			c-1.731-3.252-3.823-6.031-6.244-8.341c-2.423-2.317-5.23-4.109-8.378-5.365c-3.157-1.264-6.708-1.872-10.655-1.872
			c-3.546,0-6.607,0.568-9.256,1.692c-2.65,1.125-4.848,2.583-6.588,4.4c-1.743,1.799-3.041,3.838-3.933,6.135
			c-0.867,2.29-1.302,4.617-1.302,7.012c0,3.346,0.899,6.419,2.715,9.206c1.811,2.764,4.202,5.424,7.134,7.922
			c2.937,2.495,6.305,4.903,10.104,7.188c3.785,2.292,7.651,4.63,11.589,7.016c3.91,2.386,7.781,4.847,11.57,7.41
			c3.795,2.571,7.148,5.369,10.095,8.42c2.951,3.061,5.308,6.407,7.133,10.037c1.83,3.642,2.745,7.685,2.745,12.137
			c0,5.08-0.848,9.824-2.534,14.256c-1.677,4.434-4.221,8.308-7.57,11.623c-3.368,3.335-7.559,5.964-12.551,7.887
			c-4.993,1.919-10.809,2.876-17.425,2.876c-5.356,0-10.128-0.681-14.364-2.011c-4.21-1.352-7.947-3.295-11.167-5.85
			c-3.223-2.577-6.007-5.73-8.293-9.447C3.397,158.041,1.5,153.816,0,149.112l10.119-4.76c1.159,4.146,2.74,7.872,4.709,11.172
			c1.993,3.302,4.293,6.078,6.932,8.39c2.654,2.279,5.582,4.019,8.825,5.213C33.82,170.323,37.25,170.917,40.881,170.917"/>
		<polygon fill="#ED0677" points="101.385,77.673 128.654,149.481 155.727,77.673 182.892,149.481 207.033,77.673 215.211,77.673 
			180.113,177.138 174.249,177.138 150.185,112.744 125.996,177.138 120.634,177.138 82.96,77.673 		"/>
		<path fill="#ED0677" d="M285.004,176.028h-17.152v-13.45c-2.031,1.765-4.009,3.568-5.978,5.411
			c-1.946,1.819-4.064,3.502-6.32,5.025c-2.285,1.54-4.796,2.78-7.541,3.713c-2.76,0.941-5.945,1.422-9.581,1.422
			c-3.369,0-6.411-0.624-9.142-1.87c-2.721-1.261-5.03-2.971-6.975-5.176c-1.921-2.202-3.391-4.801-4.398-7.791
			c-1.029-2.989-1.533-6.22-1.533-9.716c0-4.209,0.733-8.014,2.222-11.402c1.453-3.393,3.456-6.427,6.004-9.124
			c2.52-2.673,5.496-5.065,8.896-7.115c3.398-2.092,6.981-3.96,10.771-5.615c3.818-1.632,7.714-3.102,11.758-4.387
			c4.018-1.284,7.971-2.489,11.817-3.57v-6.135c0-4.449-0.368-8.243-1.153-11.315c-0.791-3.094-1.902-5.584-3.335-7.461
			c-1.446-1.908-3.205-3.25-5.25-4.078c-2.07-0.838-4.386-1.233-6.942-1.233c-2.875,0-5.228,0.407-7.048,1.269
			c-1.816,0.855-3.244,1.997-4.288,3.4c-1.04,1.402-1.753,3.009-2.131,4.801c-0.365,1.786-0.556,3.616-0.556,5.455
			c0,1.704-0.106,3.359-0.365,4.947c-0.244,1.589-0.67,2.974-1.317,4.16c-0.646,1.205-1.522,2.152-2.597,2.892
			c-1.107,0.729-2.517,1.103-4.225,1.103c-1.328,0-2.54-0.295-3.647-0.887c-1.091-0.558-2.031-1.368-2.84-2.43
			c-0.8-1.021-1.409-2.244-1.859-3.645c-0.417-1.412-0.622-2.939-0.622-4.595c0-3.22,0.938-6.248,2.806-9.068
			c1.869-2.807,4.38-5.23,7.536-7.271c3.158-2.055,6.844-3.673,11.059-4.864c4.212-1.183,8.657-1.793,13.313-1.793
			c5.654,0,10.427,0.64,14.334,1.887c3.91,1.26,7.063,3.005,9.482,5.274c2.39,2.252,4.125,5.006,5.208,8.248
			c1.053,3.224,1.591,6.795,1.591,10.709V176.028z M267.852,118.708c-2.477,0.906-5.006,1.954-7.655,3.104
			c-2.654,1.171-5.236,2.455-7.785,3.895c-2.535,1.436-4.949,2.993-7.244,4.678c-2.309,1.673-4.312,3.452-6.046,5.356
			c-1.748,1.887-3.129,3.904-4.13,6.039c-1.016,2.157-1.537,4.388-1.537,6.699c0,2.375,0.397,4.647,1.174,6.823
			c0.766,2.156,1.796,4.052,3.076,5.673c1.297,1.613,2.777,2.9,4.46,3.849c1.686,0.936,3.415,1.423,5.246,1.423
			c1.93,0,3.736-0.301,5.484-0.878c1.749-0.571,3.427-1.347,5.055-2.333c1.634-0.977,3.257-2.124,4.896-3.442
			c1.615-1.308,3.296-2.696,5.006-4.163V118.708z"/>
		<polygon fill="#ED0677" points="321.621,176.028 304.55,176.028 304.55,32.874 316.729,27.279 321.621,27.279 		"/>
		<path fill="#ED0677" d="M347.485,27.279c1.352,0,2.617,0.269,3.819,0.782c1.185,0.52,2.247,1.213,3.114,2.102
			c0.891,0.886,1.6,1.914,2.136,3.105c0.523,1.21,0.806,2.468,0.806,3.812c0,1.337-0.282,2.621-0.806,3.793
			c-0.536,1.193-1.245,2.246-2.136,3.124c-0.867,0.886-1.93,1.595-3.114,2.101c-1.202,0.527-2.468,0.782-3.819,0.782
			c-1.33,0-2.591-0.255-3.761-0.782c-1.178-0.506-2.217-1.215-3.08-2.101c-0.886-0.878-1.595-1.931-2.127-3.124
			c-0.542-1.172-0.799-2.456-0.799-3.793c0-1.344,0.257-2.602,0.799-3.812c0.532-1.191,1.241-2.219,2.127-3.105
			c0.863-0.889,1.902-1.582,3.08-2.102C344.894,27.548,346.155,27.279,347.485,27.279 M339.14,81.236l12.034-5.602h4.969v100.393
			H339.14V81.236z"/>
		<path fill="#ED0677" d="M407.439,170.917c2.764,0,5.514-0.43,8.207-1.275c2.712-0.864,5.107-2.14,7.219-3.87
			c2.118-1.689,3.814-3.787,5.099-6.251c1.278-2.476,1.917-5.333,1.917-8.574c0-3.907-0.883-7.374-2.646-10.402
			c-1.758-3.021-4.083-5.818-6.928-8.372c-2.865-2.579-6.146-4.97-9.827-7.199c-3.693-2.228-7.43-4.459-11.262-6.731
			c-3.818-2.252-7.562-4.626-11.254-7.105c-3.694-2.464-6.967-5.213-9.817-8.233c-2.864-3.023-5.164-6.413-6.936-10.183
			c-1.756-3.755-2.654-8.071-2.654-12.959c0-4.878,0.808-9.419,2.395-13.592c1.619-4.183,3.981-7.815,7.076-10.861
			c3.1-3.062,6.903-5.46,11.426-7.188c4.498-1.735,9.688-2.614,15.571-2.614c10.592,0,18.938,2.539,25.045,7.614
			c6.128,5.058,10.561,12.395,13.286,21.964l-9.62,5.049c-1.126-3.908-2.553-7.49-4.293-10.707
			c-1.748-3.252-3.838-6.031-6.261-8.341c-2.429-2.317-5.229-4.109-8.375-5.365c-3.157-1.264-6.692-1.872-10.664-1.872
			c-3.531,0-6.592,0.568-9.257,1.692c-2.634,1.125-4.828,2.583-6.577,4.4c-1.735,1.799-3.047,3.838-3.929,6.135
			c-0.871,2.29-1.317,4.617-1.317,7.012c0,3.346,0.906,6.419,2.735,9.206c1.821,2.764,4.201,5.424,7.114,7.922
			c2.946,2.495,6.315,4.903,10.108,7.188c3.809,2.292,7.656,4.63,11.6,7.016c3.918,2.386,7.785,4.847,11.574,7.41
			c3.789,2.571,7.167,5.369,10.104,8.42c2.945,3.061,5.316,6.407,7.128,10.037c1.821,3.642,2.717,7.685,2.717,12.137
			c0,5.08-0.839,9.824-2.524,14.256c-1.682,4.434-4.207,8.308-7.564,11.623c-3.374,3.335-7.545,5.964-12.547,7.887
			c-5.008,1.919-10.813,2.876-17.436,2.876c-5.336,0-10.123-0.681-14.353-2.011c-4.222-1.352-7.952-3.295-11.182-5.85
			c-3.225-2.577-5.979-5.73-8.279-9.447c-2.313-3.715-4.216-7.939-5.695-12.644l10.098-4.76c1.169,4.146,2.745,7.872,4.729,11.172
			c1.969,3.302,4.279,6.078,6.918,8.39c2.654,2.279,5.596,4.019,8.825,5.213C400.372,170.323,403.797,170.917,407.439,170.917"/>
	</g>
</g>
</svg>
